<svg width="1600" height="520" viewBox="0 0 1600 520" fill="none" xmlns="http://www.w3.org/2000/svg" role="img" aria-labelledby="title desc">
  <title id="title">Comfy Jot</title>
  <desc id="desc">Comfy Jot README banner with a dark ComfyUI-inspired canvas, orange note accents, and a floating tool dock.</desc>
  <defs>
    <linearGradient id="bg" x1="120" y1="48" x2="1480" y2="472" gradientUnits="userSpaceOnUse">
      <stop stop-color="#0B0E13"/>
      <stop offset="0.5" stop-color="#12161D"/>
      <stop offset="1" stop-color="#090B10"/>
    </linearGradient>
    <radialGradient id="accentGlow" cx="0" cy="0" r="1" gradientUnits="userSpaceOnUse" gradientTransform="translate(1170 140) rotate(117.019) scale(292.253 412.13)">
      <stop stop-color="#FFB347" stop-opacity="0.26"/>
      <stop offset="1" stop-color="#FFB347" stop-opacity="0"/>
    </radialGradient>
    <linearGradient id="gridFade" x1="910" y1="74" x2="1468" y2="398" gradientUnits="userSpaceOnUse">
      <stop stop-color="#6E7890" stop-opacity="0.18"/>
      <stop offset="1" stop-color="#6E7890" stop-opacity="0.03"/>
    </linearGradient>
    <filter id="softShadow" x="0" y="0" width="1600" height="520" filterUnits="userSpaceOnUse" color-interpolation-filters="sRGB">
      <feDropShadow dx="0" dy="18" stdDeviation="34" flood-color="#000000" flood-opacity="0.4"/>
    </filter>
  </defs>

  <rect width="1600" height="520" rx="32" fill="url(#bg)"/>
  <rect x="34" y="34" width="1532" height="452" rx="24" stroke="#FFFFFF" stroke-opacity="0.08"/>
  <circle cx="1184" cy="138" r="210" fill="url(#accentGlow)"/>

  <path d="M110 128H260" stroke="#FFB347" stroke-width="12" stroke-linecap="round"/>
  <path d="M110 392H346" stroke="#2C3340" stroke-width="8" stroke-linecap="round"/>
  <path d="M1266 110H1492" stroke="#2A313D" stroke-width="8" stroke-linecap="round"/>
  <path d="M1214 144H1492" stroke="#7BDFF2" stroke-opacity="0.5" stroke-width="8" stroke-linecap="round"/>

  <text x="110" y="246" fill="#F6F8FC" font-family="Segoe UI, Arial, sans-serif" font-size="120" font-weight="800" letter-spacing="8">COMFY</text>
  <text x="110" y="348" fill="#FFB347" font-family="Segoe UI, Arial, sans-serif" font-size="120" font-weight="800" letter-spacing="8">JOT</text>

  <text x="114" y="414" fill="#A9B1BF" font-family="Segoe UI, Arial, sans-serif" font-size="28" font-weight="500" letter-spacing="1.2">
    Draw notes directly on the ComfyUI graph and keep them with the workflow
  </text>

  <g filter="url(#softShadow)">
    <rect x="932" y="90" width="476" height="286" rx="28" fill="#11151C"/>
    <rect x="932.5" y="90.5" width="475" height="285" rx="27.5" stroke="#242C38"/>

    <rect x="958" y="116" width="424" height="184" rx="20" fill="#0C1016"/>
    <rect x="958.5" y="116.5" width="423" height="183" rx="19.5" stroke="#1E2530"/>
    <path d="M978 138H1362" stroke="url(#gridFade)" stroke-width="1"/>
    <path d="M978 162H1362" stroke="url(#gridFade)" stroke-width="1"/>
    <path d="M978 186H1362" stroke="url(#gridFade)" stroke-width="1"/>
    <path d="M978 210H1362" stroke="url(#gridFade)" stroke-width="1"/>
    <path d="M978 234H1362" stroke="url(#gridFade)" stroke-width="1"/>
    <path d="M978 258H1362" stroke="url(#gridFade)" stroke-width="1"/>
    <path d="M978 282H1362" stroke="url(#gridFade)" stroke-width="1"/>
    <path d="M1002 122V294" stroke="url(#gridFade)" stroke-width="1"/>
    <path d="M1034 122V294" stroke="url(#gridFade)" stroke-width="1"/>
    <path d="M1066 122V294" stroke="url(#gridFade)" stroke-width="1"/>
    <path d="M1098 122V294" stroke="url(#gridFade)" stroke-width="1"/>
    <path d="M1130 122V294" stroke="url(#gridFade)" stroke-width="1"/>
    <path d="M1162 122V294" stroke="url(#gridFade)" stroke-width="1"/>
    <path d="M1194 122V294" stroke="url(#gridFade)" stroke-width="1"/>
    <path d="M1226 122V294" stroke="url(#gridFade)" stroke-width="1"/>
    <path d="M1258 122V294" stroke="url(#gridFade)" stroke-width="1"/>
    <path d="M1290 122V294" stroke="url(#gridFade)" stroke-width="1"/>
    <path d="M1322 122V294" stroke="url(#gridFade)" stroke-width="1"/>

    <rect x="1000" y="176" width="116" height="72" rx="16" fill="#1A1F28"/>
    <rect x="1128" y="152" width="156" height="88" rx="18" fill="#223A25"/>
    <rect x="1298" y="168" width="70" height="58" rx="14" fill="#1C2430"/>

    <path d="M1004 208C1022 196 1042 222 1063 204C1085 186 1090 221 1108 208" stroke="#FFB347" stroke-width="5" stroke-linecap="round" stroke-linejoin="round"/>
    <path d="M1032 256C1050 242 1084 269 1108 248" stroke="#FF6B6B" stroke-width="5" stroke-linecap="round" stroke-linejoin="round"/>
    <path d="M1148 182C1182 174 1210 224 1262 212" stroke="#7AE582" stroke-width="5" stroke-linecap="round" stroke-linejoin="round"/>
    <path d="M1148 216C1180 204 1190 242 1230 234" stroke="#7BDFF2" stroke-width="5" stroke-linecap="round" stroke-linejoin="round"/>

    <rect x="1004" y="316" width="332" height="40" rx="18" fill="#181D25"/>
    <rect x="1004.5" y="316.5" width="331" height="39" rx="17.5" stroke="#2A313D"/>

    <rect x="1020" y="325" width="72" height="22" rx="11" fill="#202734"/>
    <text x="1056" y="340" fill="#F5F7FA" font-family="Segoe UI, Arial, sans-serif" font-size="12" font-weight="700" text-anchor="middle">Ink Off</text>

    <rect x="1104" y="323" width="24" height="24" rx="12" fill="#FFB347"/>
    <rect x="1140" y="323" width="24" height="24" rx="12" fill="#7BDFF2"/>
    <rect x="1176" y="333" width="92" height="6" rx="3" fill="#303847"/>
    <rect x="1176" y="333" width="46" height="6" rx="3" fill="#FFB347"/>
    <circle cx="1222" cy="336" r="8" fill="#F5F7FA"/>

    <rect x="1282" y="325" width="38" height="22" rx="11" fill="#202734"/>
    <text x="1301" y="340" fill="#AAB2BF" font-family="Segoe UI, Arial, sans-serif" font-size="12" font-weight="700" text-anchor="middle">48px</text>
  </g>
</svg>
